<?xml version="1.0" encoding="UTF-8"?>
<svg width="24px" height="24px" viewBox="0 0 24 24" version="1.1" xmlns="http://www.w3.org/2000/svg" xmlns:xlink="http://www.w3.org/1999/xlink">
    <!-- Generator: Sketch 54 (76480) - https://sketchapp.com -->
    <title>icon/action/https_24px_two_tone</title>
    <desc>Created with Sketch.</desc>
    <defs>
        <path d="M0,10 L12,10 L12,0 L0,0 L0,10 Z M6,3 C7.1,3 8,3.9 8,5 C8,6.1 7.1,7 6,7 C4.9,7 4,6.1 4,5 C4,3.9 4.9,3 6,3 Z" id="path-1"></path>
        <path d="M14,7 L13,7 L13,5 C13,2.24 10.76,0 8,0 C5.24,0 3,2.24 3,5 L3,7 L2,7 C0.9,7 0,7.9 0,9 L0,19 C0,20.1 0.9,21 2,21 L14,21 C15.1,21 16,20.1 16,19 L16,9 C16,7.9 15.1,7 14,7 Z M5,5 C5,3.34 6.34,2 8,2 C9.66,2 11,3.34 11,5 L11,7 L5,7 L5,5 Z M14,19 L2,19 L2,9 L14,9 L14,19 Z M8,16 C9.1,16 10,15.1 10,14 C10,12.9 9.1,12 8,12 C6.9,12 6,12.9 6,14 C6,15.1 6.9,16 8,16 Z" id="path-3"></path>
    </defs>
    <g id="icon/action/https_24px" stroke="none" stroke-width="1" fill="none" fill-rule="evenodd">
        <g id="↳-Light-Color" transform="translate(6.000000, 10.000000)">
            <mask id="mask-2" fill="white">
                <use xlink:href="#path-1"></use>
            </mask>
            <g id="Mask" opacity="0.3" fill-rule="nonzero"></g>
            <g id="✱-/-Color-/-Icons-/-Black-/-Disabled" opacity="0.485607329" mask="url(#mask-2)" fill="#1A7DFF" fill-opacity="0.38">
                <rect id="Rectangle" x="0" y="0" width="101" height="101"></rect>
            </g>
        </g>
        <g id="↳-Dark-Color" transform="translate(4.000000, 1.000000)">
            <mask id="mask-4" fill="white">
                <use xlink:href="#path-3"></use>
            </mask>
            <g id="Mask" fill-rule="nonzero"></g>
            <g id="✱-/-Color-/-Icons-/-Black-/-Inactive" mask="url(#mask-4)" fill="#1A7DFF">
                <rect id="Rectangle" x="0" y="0" width="101" height="101"></rect>
            </g>
        </g>
    </g>
</svg>